{
    "streams": [
        {
            "index": 0,
            "codec_name": "h264",
            "codec_long_name": "H.264 / AVC / MPEG-4 AVC / MPEG-4 part 10",
            "profile": "High",
            "codec_type": "video",
            "codec_tag_string": "avc1",
            "codec_tag": "0x31637661",
            "width": 3840,
            "height": 2160,
            "coded_width": 3840,
            "coded_height": 2160,
            "closed_captions": 0,
            "film_grain": 0,
            "has_b_frames": 2,
            "sample_aspect_ratio": "1:1",
            "display_aspect_ratio": "16:9",
            "pix_fmt": "yuv420p",
            "level": 51,
            "chroma_location": "left",
            "field_order": "progressive",
            "refs": 1,
            "is_avc": "true",
            "nal_length_size": "4",
            "id": "0x1",
            "r_frame_rate": "60/1",
            "avg_frame_rate": "60/1",
            "time_base": "1/60000",
            "start_pts": 1980,
            "start_time": "0.033000",
            "duration_ts": 3600000,
            "duration": "60.000000",
            "bit_rate": "8494062",
            "bits_per_raw_sample": "8",
            "nb_frames": "3600",
            "extradata_size": 42,
            "disposition": {
                "default": 1,
                "dub": 0,
                "original": 0,
                "comment": 0,
                "lyrics": 0,
                "karaoke": 0,
                "forced": 0,
                "hearing_impaired": 0,
                "visual_impaired": 0,
                "clean_effects": 0,
                "attached_pic": 0,
                "timed_thumbnails": 0,
                "non_diegetic": 0,
                "captions": 0,
                "descriptions": 0,
                "metadata": 0,
                "dependent": 0,
                "still_image": 0,
                "multilayer": 0
            },
            "tags": {
                "language": "und",
                "handler_name": "GPAC ISO Video Handler",
                "vendor_id": "[0][0][0][0]"
            }
        },
        {
            "index": 1,
            "codec_name": "aac",
            "codec_long_name": "AAC (Advanced Audio Coding)",
            "profile": "LC",
            "codec_type": "audio",
            "codec_tag_string": "mp4a",
            "codec_tag": "0x6134706d",
            "sample_fmt": "fltp",
            "sample_rate": "48000",
            "channels": 2,
            "channel_layout": "stereo",
            "bits_per_sample": 0,
            "initial_padding": 0,
            "id": "0x2",
            "r_frame_rate": "0/0",
            "avg_frame_rate": "0/0",
            "time_base": "1/48000",
            "start_pts": 0,
            "start_time": "0.000000",
            "duration_ts": 2880000,
            "duration": "60.000000",
            "bit_rate": "193720",
            "nb_frames": "2814",
            "extradata_size": 5,
            "disposition": {
                "default": 1,
                "dub": 0,
                "original": 0,
                "comment": 0,
                "lyrics": 0,
                "karaoke": 0,
                "forced": 0,
                "hearing_impaired": 0,
                "visual_impaired": 0,
                "clean_effects": 0,
                "attached_pic": 0,
                "timed_thumbnails": 0,
                "non_diegetic": 0,
                "captions": 0,
                "descriptions": 0,
                "metadata": 0,
                "dependent": 0,
                "still_image": 0,
                "multilayer": 0
            },
            "tags": {
                "language": "und",
                "handler_name": "GPAC ISO Audio Handler",
                "vendor_id": "[0][0][0][0]"
            }
        },
        {
            "index": 2,
            "codec_name": "aac",
            "codec_long_name": "AAC (Advanced Audio Coding)",
            "profile": "LC",
            "codec_type": "audio",
            "codec_tag_string": "mp4a",
            "codec_tag": "0x6134706d",
            "sample_fmt": "fltp",
            "sample_rate": "48000",
            "channels": 6,
            "bits_per_sample": 0,
            "initial_padding": 0,
            "id": "0x3",
            "r_frame_rate": "0/0",
            "avg_frame_rate": "0/0",
            "time_base": "1/48000",
            "start_pts": 0,
            "start_time": "0.000000",
            "duration_ts": 2880000,
            "duration": "60.000000",
            "bit_rate": "192266",
            "nb_frames": "2814",
            "extradata_size": 26,
            "disposition": {
                "default": 1,
                "dub": 0,
                "original": 0,
                "comment": 0,
                "lyrics": 0,
                "karaoke": 0,
                "forced": 0,
                "hearing_impaired": 0,
                "visual_impaired": 0,
                "clean_effects": 0,
                "attached_pic": 0,
                "timed_thumbnails": 0,
                "non_diegetic": 0,
                "captions": 0,
                "descriptions": 0,
                "metadata": 0,
                "dependent": 0,
                "still_image": 0,
                "multilayer": 0
            },
            "tags": {
                "language": "und",
                "handler_name": "GPAC ISO Audio Handler",
                "vendor_id": "[0][0][0][0]"
            }
        }
    ],
    "format": {
        "filename": "bbb_2160_60.mp4",
        "nb_streams": 3,
        "nb_programs": 0,
        "nb_stream_groups": 0,
        "format_name": "mov,mp4,m4a,3gp,3g2,mj2",
        "format_long_name": "QuickTime / MOV",
        "start_time": "0.000000",
        "duration": "60.033000",
        "size": "66714979",
        "bit_rate": "8890440",
        "probe_score": 100,
        "tags": {
            "major_brand": "isom",
            "minor_version": "512",
            "compatible_brands": "isomiso2avc1mp41",
            "title": "Big Buck Bunny, Sunflower version",
            "artist": "Blender Foundation 2008, Janus Bager Kristensen 2013",
            "composer": "Sacha Goedegebure",
            "encoder": "Lavf59.27.100",
            "comment": "Creative Commons Attribution 3.0 - http://bbb3d.renderfarming.net",
            "genre": "Animation"
        }
    }
}
